<svg width="100" height="40" viewBox="0 0 100 40" fill="none" xmlns="http://www.w3.org/2000/svg">
<mask id="mask0_4_227" style="mask-type:luminance" maskUnits="userSpaceOnUse" x="0" y="0" width="100" height="40">
<path fill-rule="evenodd" clip-rule="evenodd" d="M0 20C0 8.95431 8.95431 0 20 0H80C91.0457 0 100 8.95431 100 20C100 31.0457 91.0457 40 80 40H20C8.9543 40 0 31.0457 0 20Z" fill="white"/>
</mask>
<g mask="url(#mask0_4_227)">
<rect x="1" y="1" width="98" height="38" rx="19" fill="#262626" stroke="#303030" stroke-width="2"/>
<path d="M34.2584 20.43C34.2584 19.95 34.2651 19.5533 34.2784 19.24C34.2917 18.92 34.3184 18.6667 34.3584 18.48C34.4051 18.2933 34.4684 18.1633 34.5484 18.09C34.6351 18.0167 34.7484 17.98 34.8884 17.98C35.0284 17.98 35.1384 18.0167 35.2184 18.09C35.3051 18.1633 35.3684 18.2933 35.4084 18.48C35.4551 18.6667 35.4851 18.92 35.4984 19.24C35.5117 19.5533 35.5184 19.95 35.5184 20.43C35.5184 20.91 35.5117 21.31 35.4984 21.63C35.4851 21.9433 35.4551 22.1933 35.4084 22.38C35.3684 22.5667 35.3051 22.6967 35.2184 22.77C35.1384 22.8433 35.0284 22.88 34.8884 22.88C34.7484 22.88 34.6351 22.8433 34.5484 22.77C34.4684 22.6967 34.4051 22.5667 34.3584 22.38C34.3184 22.1933 34.2917 21.9433 34.2784 21.63C34.2651 21.31 34.2584 20.91 34.2584 20.43ZM32.3384 20.43C32.3384 21.0967 32.3817 21.6667 32.4684 22.14C32.5551 22.6067 32.6984 22.99 32.8984 23.29C33.0984 23.5833 33.3617 23.7933 33.6884 23.92C34.0151 24.0467 34.4151 24.11 34.8884 24.11C35.3617 24.11 35.7617 24.0467 36.0884 23.92C36.4151 23.7933 36.6784 23.5833 36.8784 23.29C37.0784 22.99 37.2217 22.6067 37.3084 22.14C37.3951 21.6667 37.4384 21.0967 37.4384 20.43C37.4384 19.7633 37.3951 19.1967 37.3084 18.73C37.2217 18.2567 37.0784 17.8733 36.8784 17.58C36.6784 17.28 36.4151 17.0633 36.0884 16.93C35.7617 16.79 35.3617 16.72 34.8884 16.72C34.4151 16.72 34.0151 16.79 33.6884 16.93C33.3617 17.0633 33.0984 17.28 32.8984 17.58C32.6984 17.8733 32.5551 18.2567 32.4684 18.73C32.3817 19.1967 32.3384 19.7633 32.3384 20.43ZM41.965 19.88V18.2H42.325C42.605 18.2 42.805 18.2633 42.925 18.39C43.0517 18.5167 43.115 18.73 43.115 19.03C43.115 19.2833 43.0517 19.49 42.925 19.65C42.7984 19.8033 42.6017 19.88 42.335 19.88H41.965ZM40.105 16.86V24H41.965V21.14H42.455C42.5684 21.14 42.6617 21.1567 42.735 21.19C42.815 21.2167 42.8784 21.27 42.925 21.35C42.9784 21.4233 43.015 21.5267 43.035 21.66C43.055 21.7933 43.065 21.96 43.065 22.16V22.64C43.065 22.7133 43.065 22.81 43.065 22.93C43.0717 23.0433 43.0784 23.1633 43.085 23.29C43.0984 23.4167 43.115 23.5433 43.135 23.67C43.1617 23.7967 43.1984 23.9067 43.245 24H45.225V23.9C45.165 23.8667 45.1217 23.8333 45.095 23.8C45.0684 23.76 45.0417 23.72 45.015 23.68C44.995 23.64 44.9784 23.5833 44.965 23.51C44.9517 23.4367 44.9417 23.3567 44.935 23.27C44.9284 23.1767 44.925 23.08 44.925 22.98C44.925 22.88 44.925 22.7833 44.925 22.69V22.08C44.925 21.6 44.8417 21.2233 44.675 20.95C44.5084 20.6767 44.2017 20.52 43.755 20.48V20.46C44.1817 20.3933 44.4917 20.2133 44.685 19.92C44.8784 19.6267 44.975 19.24 44.975 18.76C44.975 18.4867 44.9384 18.2333 44.865 18C44.7984 17.7667 44.685 17.5667 44.525 17.4C44.3717 17.2267 44.1684 17.0933 43.915 17C43.6684 16.9067 43.3684 16.86 43.015 16.86H40.105ZM47.8472 16.86V24H50.5472C51.0872 24 51.5072 23.9033 51.8072 23.71C52.1072 23.51 52.3306 23.2467 52.4772 22.92C52.6306 22.5867 52.7239 22.2067 52.7572 21.78C52.7906 21.3467 52.8072 20.8967 52.8072 20.43C52.8072 19.9633 52.7906 19.5167 52.7572 19.09C52.7239 18.6567 52.6306 18.2767 52.4772 17.95C52.3306 17.6167 52.1072 17.3533 51.8072 17.16C51.5072 16.96 51.0872 16.86 50.5472 16.86H47.8472ZM49.7072 22.66V18.2H50.0772C50.2572 18.2 50.4006 18.2267 50.5072 18.28C50.6139 18.3267 50.6939 18.43 50.7472 18.59C50.8072 18.75 50.8439 18.9767 50.8572 19.27C50.8772 19.5633 50.8872 19.95 50.8872 20.43C50.8872 20.91 50.8772 21.2967 50.8572 21.59C50.8439 21.8833 50.8072 22.11 50.7472 22.27C50.6939 22.43 50.6139 22.5367 50.5072 22.59C50.4006 22.6367 50.2572 22.66 50.0772 22.66H49.7072ZM55.5894 16.86V24H59.9094V22.48H57.4494V21.06H59.6694V19.6H57.4494V18.38H59.8194V16.86H55.5894ZM64.4494 19.88V18.2H64.8094C65.0894 18.2 65.2894 18.2633 65.4094 18.39C65.5361 18.5167 65.5994 18.73 65.5994 19.03C65.5994 19.2833 65.5361 19.49 65.4094 19.65C65.2827 19.8033 65.0861 19.88 64.8194 19.88H64.4494ZM62.5894 16.86V24H64.4494V21.14H64.9394C65.0527 21.14 65.1461 21.1567 65.2194 21.19C65.2994 21.2167 65.3627 21.27 65.4094 21.35C65.4627 21.4233 65.4994 21.5267 65.5194 21.66C65.5394 21.7933 65.5494 21.96 65.5494 22.16V22.64C65.5494 22.7133 65.5494 22.81 65.5494 22.93C65.5561 23.0433 65.5627 23.1633 65.5694 23.29C65.5827 23.4167 65.5994 23.5433 65.6194 23.67C65.6461 23.7967 65.6827 23.9067 65.7294 24H67.7094V23.9C67.6494 23.8667 67.6061 23.8333 67.5794 23.8C67.5527 23.76 67.5261 23.72 67.4994 23.68C67.4794 23.64 67.4627 23.5833 67.4494 23.51C67.4361 23.4367 67.4261 23.3567 67.4194 23.27C67.4127 23.1767 67.4094 23.08 67.4094 22.98C67.4094 22.88 67.4094 22.7833 67.4094 22.69V22.08C67.4094 21.6 67.3261 21.2233 67.1594 20.95C66.9927 20.6767 66.6861 20.52 66.2394 20.48V20.46C66.6661 20.3933 66.9761 20.2133 67.1694 19.92C67.3627 19.6267 67.4594 19.24 67.4594 18.76C67.4594 18.4867 67.4227 18.2333 67.3494 18C67.2827 17.7667 67.1694 17.5667 67.0094 17.4C66.8561 17.2267 66.6527 17.0933 66.3994 17C66.1527 16.9067 65.8527 16.86 65.4994 16.86H62.5894Z" fill="white" fill-opacity="0.5"/>
</g>
</svg>
